<?xml version="1.0" standalone="no"?>
<!DOCTYPE svg PUBLIC "-//W3C//DTD SVG 20010904//EN"
 "http://www.w3.org/TR/2001/REC-SVG-20010904/DTD/svg10.dtd">
<svg version="1.0" xmlns="http://www.w3.org/2000/svg"
 width="700.000000pt" height="700.000000pt" viewBox="0 0 700.000000 700.000000"
 preserveAspectRatio="xMidYMid meet">
<metadata>
Created by potrace 1.11, written by Peter Selinger 2001-2013
</metadata>
<g transform="translate(0.000000,700.000000) scale(0.100000,-0.100000)"
fill="#000000" stroke="none">
<path d="M2852 5350 l-653 -1090 -875 0 c-829 0 -875 -1 -870 -17 3 -10 102
-306 219 -658 l214 -640 1042 -3 c828 -2 1042 -5 1038 -15 -3 -6 -127 -296
-276 -644 -149 -347 -271 -636 -271 -641 0 -8 1027 -841 1075 -871 21 -13 50
9 566 424 299 241 545 439 547 440 1 1 -123 294 -277 651 l-279 649 1038 3
1038 2 220 660 220 660 -871 0 -872 0 -654 1090 c-360 600 -657 1090 -660
1090 -3 -1 -300 -491 -659 -1090z m680 -1860 c2 -1099 -1 -2036 -7 -2215 l-10
-310 -6 175 c-9 253 -10 2814 -2 3996 7 925 9 978 15 634 5 -206 9 -1232 10
-2280z m-491 1234 c159 -47 279 -163 333 -320 70 -206 -25 -455 -218 -568
-106 -62 -257 -82 -367 -50 -221 66 -359 242 -362 464 -2 217 134 405 343 471
72 22 200 24 271 3z m1200 0 c88 -26 150 -63 215 -128 68 -68 105 -132 128
-223 65 -250 -90 -515 -343 -585 -253 -70 -521 81 -595 335 -20 70 -21 198 0
268 45 153 169 279 324 329 71 23 199 25 271 4z m-1643 -1141 c177 -293 318
-533 314 -533 -9 0 -90 92 -159 180 -47 60 -152 222 -215 331 l-27 46 -248 7
c-136 3 -399 11 -583 17 -184 6 -450 14 -590 17 l-255 7 310 13 c171 8 533 22
805 32 272 10 496 19 497 19 1 1 -18 45 -43 99 -98 207 -146 318 -130 301 2
-2 148 -244 324 -536z m2114 420 c-22 -54 -58 -138 -81 -187 -23 -49 -39 -91
-36 -94 3 -3 222 -13 487 -23 266 -9 625 -23 798 -31 l315 -13 -255 -7 c-140
-3 -403 -11 -585 -17 -181 -6 -441 -13 -577 -17 l-247 -7 -66 -111 c-96 -162
-188 -287 -288 -390 -72 -74 -84 -84 -65 -50 67 117 633 1052 636 1049 2 -2
-14 -47 -36 -102z m-1308 -1768 l28 -50 -27 30 c-45 52 -145 186 -172 233 -23
39 -28 42 -34 26 -4 -10 -39 -156 -78 -324 -71 -303 -148 -611 -150 -598 -4
29 117 736 156 911 l26 118 -41 87 c-43 93 -72 160 -72 171 0 6 310 -508 364
-604z m519 461 l-60 -125 23 -103 c40 -175 160 -895 152 -903 -4 -4 -185 733
-210 858 -7 31 -15 57 -18 56 -3 0 -34 -45 -70 -99 -35 -54 -84 -120 -107
-147 -31 -34 11 43 149 274 106 177 194 320 196 318 2 -2 -23 -60 -55 -129z
m124 -1168 c-3 -8 -6 -5 -6 6 -1 11 2 17 5 13 3 -3 4 -12 1 -19z"/>
<path d="M2834 4556 c-176 -44 -279 -238 -215 -406 67 -177 267 -253 438 -168
95 47 154 143 161 259 4 67 1 83 -23 136 -63 142 -213 217 -361 179z"/>
<path d="M4044 4559 c-113 -27 -210 -126 -234 -238 -50 -238 175 -434 410
-356 75 25 160 109 184 183 52 155 -16 322 -159 388 -59 27 -143 37 -201 23z"/>
</g>
</svg>
